<?xml version="1.0" encoding="UTF-8"?>
<svg version="1.1" xmlns="http://www.w3.org/2000/svg" width="685" height="364">
<path d="M0 0 C0.433125 0.886875 0.86625 1.77375 1.3125 2.6875 C2.88533127 5.94916114 2.88533127 5.94916114 4.75 8.5625 C6 11 6 11 5.95703125 13.20703125 C4.54600686 17.32491877 1.85416987 19.95629225 -1.0625 23.125 C-5.87658236 28.49744728 -10.29835887 33.89719838 -14.4140625 39.828125 C-15.82807746 41.76455928 -17.29771113 43.32569396 -19 45 C-20.36011609 46.98188345 -21.69791204 48.97951869 -23 51 C-22.55785156 51.391875 -22.11570312 51.78375 -21.66015625 52.1875 C-15.04690864 59.40761034 -13.55487804 70.00731718 -12.6875 79.375 C-13.64459337 90.47728304 -16.74354447 102.80568582 -24.625 111.125 C-26.70479557 112.76694387 -28.55188392 114.00261938 -31 115 C-31 115.66 -31 116.32 -31 117 C-37.1177849 122.14450094 -43.88274299 125.65394744 -51.3125 128.4375 C-51.96927734 128.6840332 -52.62605469 128.93056641 -53.30273438 129.18457031 C-74.07303272 136.55163375 -95.65480203 131.48195081 -115 123 C-115 122.34 -115 121.68 -115 121 C-115.70125 120.7525 -116.4025 120.505 -117.125 120.25 C-123.23032601 117.59551043 -126.51092155 114.62754589 -130 109 C-130.90269814 107.92560711 -131.81949498 106.86290203 -132.75 105.8125 C-135 103 -135 103 -135 100 C-157.97952553 100.29426633 -186.78869494 102.25736917 -207.28515625 113.57421875 C-211.58208002 115.83087656 -216.07342158 117.6475026 -220.55664062 119.5012207 C-223.95168407 120.94328611 -226.56444994 122.20842268 -229 125 C-229.78375 125.309375 -230.5675 125.61875 -231.375 125.9375 C-234.43185913 127.17480012 -236.46349248 128.9073813 -239 131 C-239.763125 131.45375 -240.52625 131.9075 -241.3125 132.375 C-246.13185868 135.28903083 -250.53723734 138.79163084 -254.875 142.375 C-257 144 -257 144 -259 144 C-259.2475 144.58652344 -259.495 145.17304688 -259.75 145.77734375 C-261.18382496 148.32686375 -262.74692804 149.71117065 -265 151.5625 C-267.55772463 153.67356316 -269.133135 155.19970251 -271 158 C-271.99 158.33 -272.98 158.66 -274 159 C-274.309375 159.61875 -274.61875 160.2375 -274.9375 160.875 C-276.21806002 163.43612005 -277.59166899 164.49479312 -280 166 C-280.66 166 -281.32 166 -282 166 C-282.185625 166.680625 -282.37125 167.36125 -282.5625 168.0625 C-284.25009792 171.51106966 -286.36722493 173.558818 -289.1484375 176.15625 C-291.12293286 178.00362135 -291.12293286 178.00362135 -292.73339081 180.57214355 C-295 183 -295 183 -297.81684113 183.65148926 C-298.90599571 183.66401733 -299.9951503 183.67654541 -301.11730957 183.68945312 C-302.36058769 183.71591919 -303.60386581 183.74238525 -304.88481903 183.76965332 C-306.25198739 183.77396656 -307.61915727 183.77781756 -308.98632812 183.78125 C-310.42301043 183.80279809 -311.85966092 183.82656772 -313.29627228 183.85241699 C-316.32892185 183.902591 -319.36121983 183.93785948 -322.39419556 183.9609375 C-326.82577259 183.99500518 -331.25624434 184.06366281 -335.68725586 184.140625 C-344.04808438 184.28077449 -352.40914899 184.37939542 -360.77061653 184.47232056 C-364.99078481 184.52003524 -369.21090441 184.57174021 -373.43103027 184.62304688 C-383.22230687 184.74148015 -393.01363335 184.85539059 -402.80496979 184.96875 C-416.89825916 185.13216757 -430.99151347 185.2985034 -445.0847199 185.46892691 C-446.79821299 185.48963191 -448.51170681 185.51027616 -450.22520137 185.53085947 C-473.20234653 185.80705363 -496.17611186 186.13403617 -519.14868164 186.68432617 C-558.08317723 187.60814747 -558.08317723 187.60814747 -571 187 C-572 186 -572 186 -572.09765625 184.15234375 C-572.06510417 182.1015625 -572.03255208 180.05078125 -572 178 C-569.30338256 176.65169128 -566.78459907 176.48510255 -563.79296875 176.0859375 C-556.27876261 175.04956133 -548.79536424 173.86922447 -541.3125 172.625 C-540.66247009 172.51739349 -540.01244019 172.40978699 -539.3427124 172.29891968 C-530.63229502 170.85242293 -521.98749268 169.22524037 -513.36767578 167.3112793 C-507.19860483 165.96864782 -501.04310966 165.20315259 -494.7734375 164.49609375 C-490.030546 163.8725459 -485.42254407 162.88029282 -480.76953125 161.78125 C-476.44568054 160.88511514 -472.11022616 160.23210267 -467.74438477 159.57568359 C-461.42926879 158.60476076 -455.13242136 157.52777665 -448.8347168 156.45043945 C-446.56933029 156.06366615 -444.3032404 155.68121171 -442.03710938 155.29882812 C-434.03502146 153.93735517 -426.10758237 152.40242491 -418.17797852 150.65844727 C-413.54069533 149.69764579 -408.88229627 149.04362725 -404.1875 148.4375 C-398.40015551 147.68112563 -392.73855588 146.77889989 -387.05200195 145.45727539 C-383.20613045 144.60024775 -379.30490336 144.11382472 -375.40625 143.5625 C-372.80737019 143.13332719 -370.30593088 142.62219344 -367.74609375 142.0234375 C-362.72060422 140.88036841 -357.67375153 140.25161102 -352.5625 139.625 C-344.86641551 138.6352825 -337.39403793 137.29255791 -329.85229492 135.48535156 C-322.83425916 133.85357799 -315.75780778 132.90737496 -308.609375 132.0390625 C-304.58450273 131.54040576 -300.67165422 130.98663517 -296.7421875 129.96875 C-293.38277169 129.09908912 -290.18804153 128.54827647 -286.75 128.125 C-268.52552069 126.14240306 -268.52552069 126.14240306 -251.92578125 119.21484375 C-249.71485796 117.82012338 -247.51221479 116.96938366 -245.0625 116.0625 C-240.43549133 114.29948736 -236.43716122 111.92783071 -232.24609375 109.3125 C-229.59501934 107.76335043 -226.92499387 106.90999809 -224 106 C-223.01 105.401875 -222.02 104.80375 -221 104.1875 C-208.3706995 96.77940382 -191.74275137 93.01939861 -177.484375 90.02734375 C-172.54901519 88.95987187 -167.8249161 87.41663971 -163.0625 85.75 C-161.74971069 85.29246338 -161.74971069 85.29246338 -160.41040039 84.82568359 C-154.80734761 82.81031712 -149.73144685 80.51457707 -144.77734375 77.1640625 C-143 76 -143 76 -140 75 C-139.89816406 73.99839844 -139.79632813 72.99679688 -139.69140625 71.96484375 C-139.10132162 67.83425135 -137.65946491 64.33803791 -135.9375 60.5625 C-135.65583984 59.92634766 -135.37417969 59.29019531 -135.08398438 58.63476562 C-134.39710188 57.08636949 -133.69965593 55.54266643 -133 54 C-132.34 54 -131.68 54 -131 54 C-130.9175 53.4225 -130.835 52.845 -130.75 52.25 C-129.78188938 49.34566813 -128.24558843 48.04744828 -126 46 C-125.55011719 45.525625 -125.10023438 45.05125 -124.63671875 44.5625 C-122.10568893 42.14624242 -119.19167583 40.39021429 -116.265625 38.48828125 C-114.45229087 37.29710831 -112.68592437 36.03455668 -110.9375 34.75 C-108.09765881 33.05817972 -105.64772114 32.23775767 -102.42578125 31.5703125 C-99.8862594 31.01481702 -99.8862594 31.01481702 -97.04296875 29.9921875 C-82.14750364 25.03281262 -67.69512222 25.63655219 -53 31 C-51.94425781 31.3815625 -50.88851562 31.763125 -49.80078125 32.15625 C-47.92943971 32.84118547 -46.06370909 33.54188252 -44.20703125 34.265625 C-41.91324175 35.15786195 -41.91324175 35.15786195 -39 35 C-37.10083517 33.06558385 -35.49397415 30.97557794 -33.81640625 28.84765625 C-32 27 -32 27 -29.90234375 26.49609375 C-29.27457031 26.33238281 -28.64679687 26.16867188 -28 26 C-27.28403987 24.69247435 -26.62204328 23.35472668 -26 22 C-24.23046875 20.25390625 -24.23046875 20.25390625 -22.1875 18.5625 C-18.9676559 15.8366753 -15.94559797 13.02520872 -13 10 C-11.33333333 8.33333333 -9.66666667 6.66666667 -8 5 C-7.13375 4.071875 -6.2675 3.14375 -5.375 2.1875 C-3 0 -3 0 0 0 Z M-108.16796875 51.0859375 C-110.28447648 53.29721423 -112.22580582 55.50298597 -114 58 C-115.051875 59.3303125 -115.051875 59.3303125 -116.125 60.6875 C-121.44474945 70.08572403 -121.34318363 83.0933778 -118.93359375 93.4296875 C-114.98596192 104.29806299 -107.0491531 112.03975949 -96.80078125 117.08203125 C-94.90912806 117.83646268 -92.95328107 118.42362198 -91 119 C-89.7625 119.391875 -88.525 119.78375 -87.25 120.1875 C-78.67898482 122.11431737 -70.92932548 121.30731129 -62.625 118.75 C-61.95919922 118.54560303 -61.29339844 118.34120605 -60.60742188 118.13061523 C-54.83623982 116.21147969 -50.18544115 113.39471321 -46 109 C-45.34 108.67 -44.68 108.34 -44 108 C-42.9935725 106.33720673 -41.99414593 104.67016516 -41 103 C-40.52820313 102.60941406 -40.05640625 102.21882813 -39.5703125 101.81640625 C-37.17377296 99.04428962 -36.35946778 95.75705562 -35.3125 92.3125 C-35.08755859 91.62994141 -34.86261719 90.94738281 -34.63085938 90.24414062 C-32.20447588 82.43398827 -32.62820822 75.69064632 -35.125 67.9375 C-35.34655762 67.23794189 -35.56811523 66.53838379 -35.79638672 65.81762695 C-37.61277752 60.4396732 -39.80905221 56.91762511 -44 53 C-44.48210937 52.51015625 -44.96421875 52.0203125 -45.4609375 51.515625 C-62.52441601 34.71199641 -90.9717758 34.54041131 -108.16796875 51.0859375 Z M-298 148 C-297.236875 149.03125 -296.47375 150.0625 -295.6875 151.125 C-293.42984469 154.27417261 -291.63254992 157.47712912 -290 161 C-289.01 160.67 -288.02 160.34 -287 160 C-286.75764182 154.675276 -286.75764182 154.675276 -289 150 C-291.99904936 147.9316901 -294.41302423 147.80072357 -298 148 Z M-303 152 C-304.4238996 153.20858552 -304.4238996 153.20858552 -304.3125 156.75 C-304.26095237 159.93449782 -303.955188 161.08272985 -302.375 164 C-300.09887565 166.30098593 -300.09887565 166.30098593 -296.75 166.3125 C-295.8425 166.209375 -294.935 166.10625 -294 166 C-297.56189828 158.33081088 -297.56189828 158.33081088 -303 152 Z " fill="#108481" transform="translate(622,49)"/>
<path d="M0 0 C2.375 0.6875 2.375 0.6875 5 2 C5.70211894 3.65204456 6.36971413 5.31923769 7 7 C8.3287985 7.67566025 9.6628133 8.34109641 11 9 C12.18641702 10.12537096 13.33205842 11.29499209 14.4375 12.5 C17.10034462 15.26040574 19.21591561 16.96797698 23 18 C23 18.66 23 19.32 23 20 C23.721875 20.2475 24.44375 20.495 25.1875 20.75 C28.27606582 22.12269592 30.51011418 23.72353296 33 26 C33 26.66 33 27.32 33 28 C33.57878906 28.23460937 34.15757812 28.46921875 34.75390625 28.7109375 C42.40562932 33.10236117 46.17746553 42.6256865 48.61328125 50.72729492 C51.8427429 62.94878886 51.32177606 76.65832441 45.25390625 87.8984375 C36.84790072 101.98700751 24.42461008 113.55135888 8.14135742 117.68774414 C-9.15916951 121.72538849 -27.27541742 120.97807574 -43.02514648 111.88476562 C-45.46364122 110.36886062 -47.78549558 108.83060311 -50 107 C-50 106.34 -50 105.68 -50 105 C-50.60070312 104.731875 -51.20140625 104.46375 -51.8203125 104.1875 C-59.80006542 99.84010773 -65.01465822 89.11660632 -67.8125 80.875 C-70.50091018 73.78027438 -76.24967706 69.23422028 -82.875 65.8125 C-83.49036621 65.54300537 -84.10573242 65.27351074 -84.73974609 64.99584961 C-86.3108513 64.30363335 -87.86971645 63.58323159 -89.41796875 62.84130859 C-95.86377607 59.78145434 -102.20230427 57.5226002 -109.125 55.8125 C-110.66764526 55.43134033 -110.66764526 55.43134033 -112.24145508 55.04248047 C-139.86899485 48.61844449 -168.89740209 50.89227625 -197 52 C-197 49 -197 49 -194.8125 46.625 C-193.884375 45.75875 -192.95625 44.8925 -192 44 C-191.113125 43.071875 -190.22625 42.14375 -189.3125 41.1875 C-187 39 -187 39 -185 39 C-184.814375 38.29875 -184.62875 37.5975 -184.4375 36.875 C-182.72728744 33.45457488 -180.68953067 31.85784726 -177.75390625 29.4921875 C-175.49595117 27.57116559 -173.75167898 25.38228341 -172 23 C-168.19137653 23.49771784 -165.29295334 24.7914758 -161.93969727 26.62841797 C-133.01093333 42.42363231 -96.51021289 43.91583912 -65.12890625 35.09765625 C-59.16625005 33.00588797 -55.34358899 30.56633715 -51 26 C-49.35360035 24.64172029 -47.68704193 23.30745749 -46 22 C-45.26652344 21.36449219 -44.53304687 20.72898438 -43.77734375 20.07421875 C-35.41268467 13.82719488 -25.13582987 11.40275345 -14.92578125 10.51953125 C-11.76805007 9.95881263 -10.41694792 9.02412569 -8 7 C-7.34 7 -6.68 7 -6 7 C-5.67 6.01 -5.34 5.02 -5 4 C-3.37667033 2.61423077 -1.71275535 1.27358732 0 0 Z M-41 35 C-43.23753393 37.48637884 -43.23753393 37.48637884 -45 40 C-46.2684375 41.2375 -46.2684375 41.2375 -47.5625 42.5 C-53.90272794 49.00279789 -56.14967779 56.75928815 -56.5 65.6875 C-56.36343881 73.51416297 -54.03545269 79.86668617 -51 87 C-50.34 87 -49.68 87 -49 87 C-48.773125 87.721875 -48.54625 88.44375 -48.3125 89.1875 C-44.69469946 96.93992974 -36.52962247 101.13418593 -28.91796875 104.26953125 C-15.52941624 108.85110363 -3.74230427 107.74027635 9 102 C15.67678034 98.08404785 21.58407223 93.39501736 26 87 C26.4846875 86.37738281 26.969375 85.75476563 27.46875 85.11328125 C31.37073128 79.07604911 31.52422277 72.92530036 31.625 65.9375 C31.65956299 64.53649048 31.65956299 64.53649048 31.69482422 63.10717773 C31.5775767 52.55955403 26.42209968 45.76892153 19.375 38.29296875 C11.0108614 30.21772309 -0.0047725 25.73702436 -11.64453125 24.91015625 C-22.12669587 25.30997347 -32.23506037 29.40049489 -41 35 Z " fill="#128481" transform="translate(530,182)"/>
<path d="M0 0 C0 0.66 0 1.32 0 2 C-0.66 2.33 -1.32 2.66 -2 3 C-2 5.64 -2 8.28 -2 11 C-0.68 11.66 0.64 12.32 2 13 C1.25838623 13.31751221 0.51677246 13.63502441 -0.24731445 13.9621582 C-3.60560642 15.40488443 -6.95905475 16.85854588 -10.3125 18.3125 C-11.47974609 18.81201172 -12.64699219 19.31152344 -13.84960938 19.82617188 C-14.96787109 20.31279297 -16.08613281 20.79941406 -17.23828125 21.30078125 C-18.26993408 21.74591064 -19.30158691 22.19104004 -20.36450195 22.6496582 C-22.80655675 23.90088609 -24.14247055 25.04815507 -26 27 C-28.6875 27.6875 -28.6875 27.6875 -31 28 C-31 27.01 -31 26.02 -31 25 C-29.35 24.67 -27.7 24.34 -26 24 C-26 23.01 -26 22.02 -26 21 C-27.41601714 20.51891725 -28.83284437 20.04021859 -30.25 19.5625 C-31.03890625 19.29566406 -31.8278125 19.02882812 -32.640625 18.75390625 C-34.74821988 18.08045292 -36.84753973 17.50849405 -39 17 C-38.38511719 16.66226563 -37.77023437 16.32453125 -37.13671875 15.9765625 C-36.32847656 15.53054687 -35.52023437 15.08453125 -34.6875 14.625 C-33.88699219 14.18414062 -33.08648437 13.74328125 -32.26171875 13.2890625 C-30.46472057 12.26486665 -28.72099292 11.14732862 -27 10 C-25.63875 9.566875 -25.63875 9.566875 -24.25 9.125 C-21.23499439 8.08134421 -18.79469903 6.70948533 -16.06640625 5.0859375 C-11.17478286 2.51529231 -5.56413194 0 0 0 Z " fill="#1B8884" transform="translate(419,147)"/>
<path d="M0 0 C1.31538327 4.15771494 0.34433068 6.8879297 -1 11 C-1.99 11 -2.98 11 -4 11 C-3.62875 11.7425 -3.2575 12.485 -2.875 13.25 C-2 16 -2 16 -2.75 18.1875 C-4 20 -4 20 -6 22 C-6 22.99 -6 23.98 -6 25 C-5.236875 25.12375 -4.47375 25.2475 -3.6875 25.375 C-1 26 -1 26 2 28 C-0.97 29.98 -3.94 31.96 -7 34 C-7.33 33.34 -7.66 32.68 -8 32 C-8.66 32 -9.32 32 -10 32 C-10.33 31.34 -10.66 30.68 -11 30 C-11.66 30.66 -12.32 31.32 -13 32 C-13 31.34 -13 30.68 -13 30 C-13.66 30 -14.32 30 -15 30 C-15.2475 29.195625 -15.495 28.39125 -15.75 27.5625 C-16.1625 26.716875 -16.575 25.87125 -17 25 C-19.03028196 24.30464127 -19.03028196 24.30464127 -21 24 C-20.26394531 23.49210937 -19.52789063 22.98421875 -18.76953125 22.4609375 C-9.50489809 15.92551596 -4.77991926 10.29208147 0 0 Z " fill="#1A8886" transform="translate(560,259)"/>
<path d="M0 0 C0.51046875 0.32613281 1.0209375 0.65226563 1.546875 0.98828125 C7.08680902 4.31813521 12.26893596 6.02252091 18.59375 7.32421875 C19.78484375 7.65873047 19.78484375 7.65873047 21 8 C21.33 8.66 21.66 9.32 22 10 C18.04 10 14.08 10 10 10 C10.85006086 12.26716429 10.85006086 12.26716429 13.5 12.9375 C14.325 13.288125 15.15 13.63875 16 14 C16.33 14.99 16.66 15.98 17 17 C27.395 17.99 27.395 17.99 38 19 C38 19.33 38 19.66 38 20 C9.79980365 20.51051741 9.79980365 20.51051741 -3 14 C-3 13.01 -3 12.02 -3 11 C-1.865625 10.54625 -0.73125 10.0925 0.4375 9.625 C4.04721692 8.42904194 4.04721692 8.42904194 5 6 C3.68 5.67 2.36 5.34 1 5 C0.67 3.35 0.34 1.7 0 0 Z " fill="#298E89" transform="translate(518,161)"/>
<path d="M0 0 C0 0.66 0 1.32 0 2 C-0.99 2.495 -0.99 2.495 -2 3 C-2 5.64 -2 8.28 -2 11 C-0.68 11.66 0.64 12.32 2 13 C-0.2898234 14.0044134 -2.5816599 15.00367612 -4.875 16 C-5.52597656 16.28617188 -6.17695313 16.57234375 -6.84765625 16.8671875 C-11.7734375 19 -11.7734375 19 -14 19 C-14 16 -14 16 -12 14 C-12.66 12.35 -13.32 10.7 -14 9 C-15.65 9 -17.3 9 -19 9 C-19 9.66 -19 10.32 -19 11 C-20.65 11 -22.3 11 -24 11 C-24 11.66 -24 12.32 -24 13 C-25.98 13.99 -27.96 14.98 -30 16 C-30.33 15.01 -30.66 14.02 -31 13 C-27.8350672 10.32197994 -24.9032802 9.3010934 -21 8 C-19.35372552 7.03160325 -17.70775112 6.06266621 -16.06640625 5.0859375 C-11.17478286 2.51529231 -5.56413194 0 0 0 Z " fill="#238986" transform="translate(419,147)"/>
<path d="M0 0 C0 0.99 0 1.98 0 3 C0.59167969 3.19335938 1.18335938 3.38671875 1.79296875 3.5859375 C5.9146645 4.94414719 9.9950524 6.32050585 14 8 C14.125 10.875 14.125 10.875 14 14 C13.34 14.66 12.68 15.32 12 16 C9.6171875 15.9765625 9.6171875 15.9765625 6.875 15.625 C5.96492188 15.51414062 5.05484375 15.40328125 4.1171875 15.2890625 C3.41851562 15.19367188 2.71984375 15.09828125 2 15 C2 14.01 2 13.02 2 12 C0.906875 11.979375 -0.18625 11.95875 -1.3125 11.9375 C-5 11 -5 11 -6.1328125 9.375 C-6.9375 7.4375 -6.9375 7.4375 -8 4 C-2.25 0 -2.25 0 0 0 Z " fill="#0B817E" transform="translate(492,281)"/>
<path d="M0 0 C-0.33 1.32 -0.66 2.64 -1 4 C-0.34 4.33 0.32 4.66 1 5 C-0.32 5 -1.64 5 -3 5 C-2.34 5.66 -1.68 6.32 -1 7 C-0.34 7 0.32 7 1 7 C0.67 8.65 0.34 10.3 0 12 C-4.1196377 13.29243536 -7.66831683 14.26252625 -12 14 C-13.06546953 10.8035914 -13.07427838 8.34252724 -13 5 C-12.01 4.67 -11.02 4.34 -10 4 C-10 3.01 -10 2.02 -10 1 C-6.59437148 0.22157062 -3.49234244 -0.09978121 0 0 Z " fill="#13837F" transform="translate(429,145)"/>
<path d="M0 0 C0.33 0.99 0.66 1.98 1 3 C-1.64 2.67 -4.28 2.34 -7 2 C-5.824375 3.299375 -5.824375 3.299375 -4.625 4.625 C-2.16613272 7.55056447 -0.97549896 10.27536762 0 14 C0.99 13.67 1.98 13.34 3 13 C3 13.66 3 14.32 3 15 C0.69 15 -1.62 15 -4 15 C-4.33 15.66 -4.66 16.32 -5 17 C-8.14985318 13.43569245 -10.5140084 10.59306496 -12 6 C-12.33 6 -12.66 6 -13 6 C-13.33 8.64 -13.66 11.28 -14 14 C-14.33 14 -14.66 14 -15 14 C-15 10.37 -15 6.74 -15 3 C-13.35 2.67 -11.7 2.34 -10 2 C-10 1.34 -10 0.68 -10 0 C-6.30581799 -1.231394 -3.7943739 -0.64432764 0 0 Z " fill="#3B938E" transform="translate(332,196)"/>
<path d="M0 0 C1.4540625 0.0309375 1.4540625 0.0309375 2.9375 0.0625 C2.6075 1.3825 2.2775 2.7025 1.9375 4.0625 C1.2775 4.0625 0.6175 4.0625 -0.0625 4.0625 C-0.3925 5.0525 -0.7225 6.0425 -1.0625 7.0625 C-0.0725 7.3925 0.9175 7.7225 1.9375 8.0625 C1.6075 8.7225 1.2775 9.3825 0.9375 10.0625 C0.2775 10.0625 -0.3825 10.0625 -1.0625 10.0625 C-1.0625 10.7225 -1.0625 11.3825 -1.0625 12.0625 C-1.7225 12.0625 -2.3825 12.0625 -3.0625 12.0625 C-3.0625 11.4025 -3.0625 10.7425 -3.0625 10.0625 C-5.0425 11.0525 -5.0425 11.0525 -7.0625 12.0625 C-7.0625 11.0725 -7.0625 10.0825 -7.0625 9.0625 C-7.3925 10.0525 -7.7225 11.0425 -8.0625 12.0625 C-10.625 13.25 -10.625 13.25 -13.0625 14.0625 C-14.0525 12.4125 -15.0425 10.7625 -16.0625 9.0625 C-13.59491292 6.87963451 -12.25898241 6.09000754 -8.9375 5.625 C-7.98875 5.439375 -7.04 5.25375 -6.0625 5.0625 C-4.6862206 3.14485826 -4.6862206 3.14485826 -4.0625 1.0625 C-3.0625 0.0625 -3.0625 0.0625 0 0 Z " fill="#088280" transform="translate(519.0625,82.9375)"/>
<path d="M0 0 C5.1188013 -0.05022978 10.23745259 -0.08610264 15.35644531 -0.10986328 C17.09019476 -0.11979055 18.82392807 -0.13333681 20.55761719 -0.15087891 C49.37518304 -0.43471356 49.37518304 -0.43471356 61 5 C61 5.66 61 6.32 61 7 C59.78054688 6.73445312 58.56109375 6.46890625 57.3046875 6.1953125 C38.34719753 2.36434614 19.27607701 1.74132962 0 1 C0 0.67 0 0.34 0 0 Z " fill="#27857B" transform="translate(362,231)"/>
<path d="M0 0 C5.54553055 0.69992133 10.00146847 3.43379988 14.85351562 6.02929688 C19.51581217 8.45190647 23.85703445 9.89999281 29 11 C26 13 26 13 22.8125 12.625 C21.884375 12.41875 20.95625 12.2125 20 12 C20 11.34 20 10.68 20 10 C18.576875 10.061875 18.576875 10.061875 17.125 10.125 C14 10 14 10 12 8 C10.35008418 7.29289322 8.68437744 6.62056011 7 6 C7 5.34 7 4.68 7 4 C6.01 4 5.02 4 4 4 C4 3.34 4 2.68 4 2 C3.01 2 2.02 2 1 2 C0.731875 2.61875 0.46375 3.2375 0.1875 3.875 C-1 6 -1 6 -4 8 C-5.20450304 10.55183404 -5.20450304 10.55183404 -6 13 C-7.66666667 13 -9.33333333 13 -11 13 C-9.85766749 9.57300248 -8.32967599 8.5304841 -5.56640625 6.33984375 C-3.38290752 4.47216279 -1.70796088 2.2991781 0 0 Z " fill="#549C97" transform="translate(358,205)"/>
<path d="M0 0 C1.22589844 0.01353516 1.22589844 0.01353516 2.4765625 0.02734375 C3.41628906 0.04474609 3.41628906 0.04474609 4.375 0.0625 C1.82222581 2.85483071 0.15139718 3.55217606 -3.625 4.0625 C-3.955 5.3825 -4.285 6.7025 -4.625 8.0625 C4.945 8.0625 14.515 8.0625 24.375 8.0625 C24.705 8.7225 25.035 9.3825 25.375 10.0625 C20.97843827 10.08715504 16.5819128 10.10533842 12.18530273 10.11743164 C10.68855082 10.12247121 9.19180384 10.12930287 7.69506836 10.13793945 C5.54800193 10.15002159 3.40100038 10.15573191 1.25390625 10.16015625 C-0.68633423 10.16801147 -0.68633423 10.16801147 -2.66577148 10.17602539 C-5.625 10.0625 -5.625 10.0625 -6.625 9.0625 C-6.76615161 6.39191149 -6.66747107 3.73817762 -6.625 1.0625 C-4.21954362 -0.14022819 -2.67503047 -0.03821472 0 0 Z " fill="#448E87" transform="translate(56.625,225.9375)"/>
<path d="M0 0 C-0.66 1.32 -1.32 2.64 -2 4 C-3.84658203 3.938125 -3.84658203 3.938125 -5.73046875 3.875 C-12.77277002 3.875 -19.59149801 5.3246986 -26.49804688 6.578125 C-33.73899964 7.82426315 -40.65622481 8.2369756 -48 8 C-48 7.67 -48 7.34 -48 7 C-47.25951416 6.88930176 -46.51902832 6.77860352 -45.75610352 6.66455078 C-42.35773798 6.1546235 -38.96012358 5.63984677 -35.5625 5.125 C-33.81549805 4.86396484 -33.81549805 4.86396484 -32.03320312 4.59765625 C-26.24487208 3.71717773 -20.53212819 2.74183096 -14.83032227 1.41064453 C-12.62528441 0.91593016 -10.43543357 0.60021041 -8.1875 0.375 C-7.12595703 0.26285156 -7.12595703 0.26285156 -6.04296875 0.1484375 C-4.03333582 0.00242211 -2.01493052 0 0 0 Z " fill="#4E9C97" transform="translate(250,193)"/>
<path d="M0 0 C0 0.66 0 1.32 0 2 C-0.60585937 2.09796875 -1.21171875 2.1959375 -1.8359375 2.296875 C-6.51080783 3.13115955 -10.56742 4.16657367 -14.875 6.1875 C-20.65878941 8.68337091 -25.90223502 7.96390787 -32 7 C-32 6.34 -32 5.68 -32 5 C-30.81664062 4.80664062 -29.63328125 4.61328125 -28.4140625 4.4140625 C-17.14223142 2.57508688 -17.14223142 2.57508688 -5.9453125 0.33203125 C-4 0 -4 0 0 0 Z " fill="#378E8C" transform="translate(172,206)"/>
<path d="M0 0 C0 0.66 0 1.32 0 2 C0.99 2.33 1.98 2.66 3 3 C1.71034824 4.37562854 0.37310707 5.70766393 -1 7 C-1.66 7 -2.32 7 -3 7 C-3.226875 7.7425 -3.45375 8.485 -3.6875 9.25 C-5.24407532 12.51139591 -7.08518854 13.92894975 -10 16 C-10.26218749 12.85375007 -10.24754367 11.38162983 -8.5 8.6875 C-8.005 8.130625 -7.51 7.57375 -7 7 C-7.66 6.67 -8.32 6.34 -9 6 C-8 5 -7 4 -6 3 C-5.505 2.443125 -5.01 1.88625 -4.5 1.3125 C-3 0 -3 0 0 0 Z " fill="#268C89" transform="translate(343,208)"/>
<path d="M0 0 C3.16115776 1.36983503 3.9927092 1.9890638 6 5 C6.99 5.66 7.98 6.32 9 7 C6.69 8.32 4.38 9.64 2 11 C2.66 13.31 3.32 15.62 4 18 C-0.75 16.125 -0.75 16.125 -3 15 C-3 14.34 -3 13.68 -3 13 C-3.99 12.67 -4.98 12.34 -6 12 C-2.25 10.875 -2.25 10.875 0 12 C0.33 10.68 0.66 9.36 1 8 C0.34 7.67 -0.32 7.34 -1 7 C-0.01 7 0.98 7 2 7 C2 6.34 2 5.68 2 5 C1.34 4.67 0.68 4.34 0 4 C0 2.68 0 1.36 0 0 Z " fill="#328E88" transform="translate(483,274)"/>
<path d="M0 0 C0.99 0.33 1.98 0.66 3 1 C3 1.99 3 2.98 3 4 C1.89591797 4.02126953 1.89591797 4.02126953 0.76953125 4.04296875 C-5.5830611 4.24340149 -5.5830611 4.24340149 -10.875 7.4375 C-11.57625 8.283125 -12.2775 9.12875 -13 10 C-15.625 11.1875 -15.625 11.1875 -18 12 C-18.99 12.66 -19.98 13.32 -21 14 C-23.1875 13.625 -23.1875 13.625 -25 13 C-22.79232874 11.52821916 -20.58406687 10.05755749 -18.37109375 8.59375 C-16.5298145 7.35611913 -14.72540278 6.06356123 -12.9375 4.75 C-9.29688372 2.58112221 -6.13413619 1.89572951 -2 1 C-1.34 0.67 -0.68 0.34 0 0 Z " fill="#469892" transform="translate(524,79)"/>
<path d="M0 0 C0.78503906 0.33773438 1.57007813 0.67546875 2.37890625 1.0234375 C12.47298177 5.30877508 21.04588154 7.37405037 32 8 C32 8.66 32 9.32 32 10 C26.39 10 20.78 10 15 10 C15 9.34 15 8.68 15 8 C14.41992188 7.89042969 13.83984375 7.78085937 13.2421875 7.66796875 C8.40253723 6.6856635 4.34633884 5.45178089 0 3 C0 2.01 0 1.02 0 0 Z " fill="#237E79" transform="translate(492,281)"/>
<path d="M0 0 C0 0.66 0 1.32 0 2 C-0.99 2 -1.98 2 -3 2 C-3 2.66 -3 3.32 -3 4 C-6.54082916 6.1244975 -9.94991891 6.46508363 -14 7 C-14.33 7.33 -14.66 7.66 -15 8 C-16.93322038 8.21057771 -18.87228787 8.36861925 -20.8125 8.5 C-25.09070098 8.7685545 -25.09070098 8.7685545 -29.26171875 9.65625 C-29.83535156 9.7696875 -30.40898437 9.883125 -31 10 C-31.66 9.34 -32.32 8.68 -33 8 C-31.91114502 7.79636841 -31.91114502 7.79636841 -30.80029297 7.58862305 C-27.49004247 6.96415219 -24.18257861 6.32596512 -20.875 5.6875 C-19.73289062 5.47416016 -18.59078125 5.26082031 -17.4140625 5.04101562 C-12.09144095 4.00434224 -5.036842 0 0 0 Z " fill="#56A29A" transform="translate(371,169)"/>
<path d="M0 0 C0 0.66 0 1.32 0 2 C-1.65 2.33 -3.3 2.66 -5 3 C-5 4.32 -5 5.64 -5 7 C-6.65 7.66 -8.3 8.32 -10 9 C-9.67 9.99 -9.34 10.98 -9 12 C-10.423125 12.4021875 -10.423125 12.4021875 -11.875 12.8125 C-15.25267273 13.74986588 -15.25267273 13.74986588 -17 17 C-17.66 16.67 -18.32 16.34 -19 16 C-16.05965689 11.95702822 -12.67870593 8.86393287 -8.89453125 5.6484375 C-6.86561415 3.93606133 -6.86561415 3.93606133 -4.6875 1.5625 C-3 0 -3 0 0 0 Z " fill="#5AA39D" transform="translate(622,49)"/>
<path d="M0 0 C-1.32 0.33 -2.64 0.66 -4 1 C-4 1.66 -4 2.32 -4 3 C-4.90363281 3.20496094 -5.80726562 3.40992188 -6.73828125 3.62109375 C-7.91777344 3.89050781 -9.09726563 4.15992188 -10.3125 4.4375 C-12.07013672 4.83775391 -12.07013672 4.83775391 -13.86328125 5.24609375 C-17.00236971 5.95313969 -17.00236971 5.95313969 -20 7 C-22.3406065 6.72230092 -24.67624308 6.39460023 -27 6 C-27 5.34 -27 4.68 -27 4 C-26.16597656 3.87882813 -25.33195312 3.75765625 -24.47265625 3.6328125 C-19.27481542 2.85879267 -14.11606368 2.0869271 -9 0.875 C-5.93364618 0.15217626 -3.17005512 -0.20451969 0 0 Z " fill="#499790" transform="translate(110,217)"/>
<path d="M0 0 C1.32 0.66 2.64 1.32 4 2 C3.34 2 2.68 2 2 2 C2.75150023 5.27773504 2.75150023 5.27773504 6 7 C5.34 8.65 4.68 10.3 4 12 C3.01 12 2.02 12 1 12 C-3 5.25 -3 5.25 -3 3 C-1.5 1.375 -1.5 1.375 0 0 Z " fill="#1D8B8A" transform="translate(470,268)"/>
<path d="M0 0 C3.125 0.375 3.125 0.375 6 1 C1.65849923 4.96937213 1.65849923 4.96937213 -1.6875 5.125 C-2.8321875 5.063125 -2.8321875 5.063125 -4 5 C-4.66 5.66 -5.32 6.32 -6 7 C-8.8203125 7.4140625 -8.8203125 7.4140625 -12.125 7.625 C-13.22070312 7.69976562 -14.31640625 7.77453125 -15.4453125 7.8515625 C-16.28835938 7.90054688 -17.13140625 7.94953125 -18 8 C-13.76332385 5.70769213 -9.26078561 4.4336933 -4.6796875 3 C-1.89542359 2.17226199 -1.89542359 2.17226199 0 0 Z " fill="#2E8B89" transform="translate(569,162)"/>
<path d="M0 0 C0.33 0 0.66 0 1 0 C1.20625 0.804375 1.4125 1.60875 1.625 2.4375 C3.17308422 6.44844549 5.27831885 9.55897484 7.7578125 13.046875 C9 15 9 15 9 17 C9.639375 17.28875 10.27875 17.5775 10.9375 17.875 C13 19 13 19 14 21 C9.25 19.125 9.25 19.125 7 18 C7 17.34 7 16.68 7 16 C6.01 16 5.02 16 4 16 C4 14.35 4 12.7 4 11 C3.34 11 2.68 11 2 11 C2 9.68 2 8.36 2 7 C1.34 7 0.68 7 0 7 C0 4.69 0 2.38 0 0 Z " fill="#57A198" transform="translate(503,140)"/>
<path d="M0 0 C5.11410597 5.98280342 5.33778653 14.39980317 5 22 C4.34 22 3.68 22 3 22 C1.13905228 14.6802723 0.44238385 7.53216715 0 0 Z " fill="#579F98" transform="translate(604,110)"/>
<path d="M0 0 C-6.86148571 2.67481646 -12.36983601 4.13767842 -19.8125 4.0625 C-20.97394531 4.05347656 -22.13539063 4.04445312 -23.33203125 4.03515625 C-24.21246094 4.02355469 -25.09289062 4.01195312 -26 4 C-26 3.67 -26 3.34 -26 3 C-22.4192122 2.29876984 -18.8350783 1.6164242 -15.25 0.9375 C-13.72632813 0.63875977 -13.72632813 0.63875977 -12.171875 0.33398438 C-10.70234375 0.05844727 -10.70234375 0.05844727 -9.203125 -0.22265625 C-8.30239258 -0.39547119 -7.40166016 -0.56828613 -6.47363281 -0.74633789 C-3.9979814 -1.000207 -2.34682951 -0.7687064 0 0 Z " fill="#489792" transform="translate(202,202)"/>
<path d="M0 0 C0.33 0.99 0.66 1.98 1 3 C-1.64 2.67 -4.28 2.34 -7 2 C-4.525 4.97 -4.525 4.97 -2 8 C-2.33 8.66 -2.66 9.32 -3 10 C-3.66 9.67 -4.32 9.34 -5 9 C-5 8.34 -5 7.68 -5 7 C-6.32 6.34 -7.64 5.68 -9 5 C-9 3.35 -9 1.7 -9 0 C-5.93109813 -1.53445094 -3.29905734 -0.54984289 0 0 Z " fill="#54A099" transform="translate(332,196)"/>
<path d="M0 0 C1.65 0 3.3 0 5 0 C5.28875 0.61875 5.5775 1.2375 5.875 1.875 C6.93720042 4.13325765 6.93720042 4.13325765 9 6 C7.68 6.33 6.36 6.66 5 7 C5 7.99 5 8.98 5 10 C3.35 10.33 1.7 10.66 0 11 C0.66 9.68 1.32 8.36 2 7 C2.66 7 3.32 7 4 7 C3.67 6.01 3.34 5.02 3 4 C3.33 3.34 3.66 2.68 4 2 C2.02 2.66 0.04 3.32 -2 4 C-2 3.34 -2 2.68 -2 2 C-1.34 2 -0.68 2 0 2 C0 1.34 0 0.68 0 0 Z " fill="#0B807E" transform="translate(400,156)"/>
<path d="M0 0 C14.78132118 -0.55353075 14.78132118 -0.55353075 21 3 C21 3.66 21 4.32 21 5 C10.605 3.02 10.605 3.02 0 1 C0 0.67 0 0.34 0 0 Z " fill="#45978D" transform="translate(402,233)"/>
<path d="M0 0 C0 0.99 0 1.98 0 3 C7.92 3.33 15.84 3.66 24 4 C24 4.33 24 4.66 24 5 C14.76 5.33 5.52 5.66 -4 6 C-4 5.01 -4 4.02 -4 3 C-2 1.3125 -2 1.3125 0 0 Z " fill="#478583" transform="translate(337,228)"/>
<path d="M0 0 C0 0.33 0 0.66 0 1 C-0.85722656 1.19335938 -1.71445312 1.38671875 -2.59765625 1.5859375 C-8.44653174 2.91792493 -14.25718743 4.26380085 -20 6 C-20 5.01 -20 4.02 -20 3 C-13.19877155 -0.13902852 -7.43378943 -0.33452052 0 0 Z " fill="#3D9189" transform="translate(516,207)"/>
<path d="M0 0 C1.79244141 0.01740234 1.79244141 0.01740234 3.62109375 0.03515625 C5.41740234 0.04869141 5.41740234 0.04869141 7.25 0.0625 C8.17683594 0.07410156 9.10367187 0.08570313 10.05859375 0.09765625 C10.05859375 0.42765625 10.05859375 0.75765625 10.05859375 1.09765625 C7.37233921 1.6052949 4.68490992 2.10392822 1.99609375 2.59765625 C1.24392578 2.74074219 0.49175781 2.88382813 -0.28320312 3.03125 C-4.918808 3.87408725 -9.23036775 4.24780887 -13.94140625 4.09765625 C-11.64316966 1.79941966 -10.99259743 1.80075241 -7.87890625 1.53515625 C-4.07216987 1.11218554 -3.53677093 0.11742267 0 0 Z " fill="#418F85" transform="translate(455.94140625,148.90234375)"/>
<path d="M0 0 C0.51046875 0.32613281 1.0209375 0.65226563 1.546875 0.98828125 C7.78157261 4.73573247 13.90522047 6.52342152 21 8 C21 8.33 21 8.66 21 9 C18.8535247 8.88655624 16.70779408 8.75893655 14.5625 8.625 C13.36753906 8.55539063 12.17257812 8.48578125 10.94140625 8.4140625 C9.97074219 8.27742187 9.00007812 8.14078125 8 8 C7.67 7.34 7.34 6.68 7 6 C3.97065509 5.34227572 3.97065509 5.34227572 1 5 C0.67 3.35 0.34 1.7 0 0 Z " fill="#71AEA7" transform="translate(518,161)"/>
<path d="M0 0 C2.64 0.66 5.28 1.32 8 2 C8.33 3.32 8.66 4.64 9 6 C9.66 6 10.32 6 11 6 C11.68707555 8.49064888 12 10.37886292 12 13 C7 7.25 7 7.25 7 5 C6.21625 4.731875 5.4325 4.46375 4.625 4.1875 C2 3 2 3 0 0 Z " fill="#62ACA6" transform="translate(570,95)"/>
<path d="M0 0 C1.31538327 4.15771494 0.34433068 6.8879297 -1 11 C-1.99 11 -2.98 11 -4 11 C-4 11.99 -4 12.98 -4 14 C-4.99 14 -5.98 14 -7 14 C-4.66666667 9.33333333 -2.33333333 4.66666667 0 0 Z " fill="#459A91" transform="translate(560,259)"/>
<path d="M0 0 C0 3.95875396 -1.21313946 6.49009536 -3 10 C-5.1875 11.4375 -5.1875 11.4375 -7 12 C-7.33 11.67 -7.66 11.34 -8 11 C-8.33 11.66 -8.66 12.32 -9 13 C-9.66 12.67 -10.32 12.34 -11 12 C-9.71034824 10.62437146 -8.37310707 9.29233607 -7 8 C-6.34 8 -5.68 8 -5 8 C-4.9175 7.4225 -4.835 6.845 -4.75 6.25 C-3.79468987 3.3840696 -2.21530827 2.0009236 0 0 Z " fill="#5FA59E" transform="translate(583,149)"/>
<path d="M0 0 C0.99 0.33 1.98 0.66 3 1 C2.38125 1.556875 1.7625 2.11375 1.125 2.6875 C-1.06106379 5.06645178 -1.98785699 6.96357096 -3 10 C-4.66666667 10 -6.33333333 10 -8 10 C-6.66415278 5.99245833 -4.23106172 4.62523764 -1 2 C-0.67 1.34 -0.34 0.68 0 0 Z " fill="#449892" transform="translate(355,208)"/>
<path d="M0 0 C0.99 0 1.98 0 3 0 C3 0.99 3 1.98 3 3 C4.65 3.33 6.3 3.66 8 4 C8.33 3.34 8.66 2.68 9 2 C9.33 2.99 9.66 3.98 10 5 C10.99 4.67 11.98 4.34 13 4 C13 4.66 13 5.32 13 6 C10.69 6 8.38 6 6 6 C5.67 6.66 5.34 7.32 5 8 C0 2.25 0 2.25 0 0 Z " fill="#57A39D" transform="translate(322,205)"/>
<path d="M0 0 C0.66 0 1.32 0 2 0 C2 0.66 2 1.32 2 2 C3.32 1.67 4.64 1.34 6 1 C4.71034824 2.37562854 3.37310707 3.70766393 2 5 C1.34 5 0.68 5 0 5 C-0.66 6.32 -1.32 7.64 -2 9 C-3.32 9 -4.64 9 -6 9 C-6 8.34 -6 7.68 -6 7 C-5.01 7 -4.02 7 -3 7 C-2.01 4.69 -1.02 2.38 0 0 Z " fill="#4F9D97" transform="translate(363,188)"/>
<path d="M0 0 C1.32 0 2.64 0 4 0 C4 0.66 4 1.32 4 2 C6.31 2 8.62 2 11 2 C7.8745041 4.64465038 4.91211733 5.84414715 1 7 C0.67 4.69 0.34 2.38 0 0 Z " fill="#37918E" transform="translate(394,164)"/>
<path d="M0 0 C0.99 0 1.98 0 3 0 C2.67 1.32 2.34 2.64 2 4 C1.34 4 0.68 4 0 4 C-0.4021875 5.1446875 -0.4021875 5.1446875 -0.8125 6.3125 C-1.94424112 8.87380884 -2.91223401 10.19692938 -5 12 C-5 10.35 -5 8.7 -5 7 C-4.34 7 -3.68 7 -3 7 C-3 5.68 -3 4.36 -3 3 C-2.01 3 -1.02 3 0 3 C0 2.01 0 1.02 0 0 Z " fill="#44938C" transform="translate(509,101)"/>
<path d="M0 0 C1.91740583 0.78987473 3.83389641 1.58197148 5.75 2.375 C7.35101563 3.03628906 7.35101563 3.03628906 8.984375 3.7109375 C11.37555926 4.73307585 13.69383183 5.80213595 16 7 C9.741346 7.5326514 5.54891215 5.81849506 0 3 C0 2.01 0 1.02 0 0 Z " fill="#539A92" transform="translate(492,281)"/>
<path d="M0 0 C1.98 0.495 1.98 0.495 4 1 C4 1.66 4 2.32 4 3 C4.99 3.33 5.98 3.66 7 4 C7.6875 6.0625 7.6875 6.0625 8 8 C5.83125748 7.49396008 4.00032373 7.00016187 2 6 C2 5.01 2 4.02 2 3 C1.01 3 0.02 3 -1 3 C-0.67 2.01 -0.34 1.02 0 0 Z " fill="#0E7F79" transform="translate(323,202)"/>
<path d="M0 0 C1.22589844 0.01353516 1.22589844 0.01353516 2.4765625 0.02734375 C3.41628906 0.04474609 3.41628906 0.04474609 4.375 0.0625 C3.07421875 1.55078125 3.07421875 1.55078125 1.375 3.0625 C-1.8125 3.25 -1.8125 3.25 -4.625 3.0625 C-4.955 5.0425 -5.285 7.0225 -5.625 9.0625 C-5.955 9.0625 -6.285 9.0625 -6.625 9.0625 C-6.625 6.4225 -6.625 3.7825 -6.625 1.0625 C-4.21954362 -0.14022819 -2.67503047 -0.03821472 0 0 Z " fill="#6DB1AB" transform="translate(56.625,225.9375)"/>
<path d="M0 0 C3.06081203 2.75473082 4.89882863 4.99574049 6 9 C5.625 11.3125 5.625 11.3125 5 13 C4.67 11.68 4.34 10.36 4 9 C3.01 9 2.02 9 1 9 C0.67 6.03 0.34 3.06 0 0 Z " fill="#43948B" transform="translate(571,219)"/>
<path d="M0 0 C-0.60183749 2.02045442 -1.27306096 4.02111039 -2 6 C-2.99 6.495 -2.99 6.495 -4 7 C-6.03144641 6.06553465 -8.03533587 5.06775224 -10 4 C-6.86268382 1.90845588 -3.85464592 0 0 0 Z " fill="#479B95" transform="translate(472,215)"/>
<path d="M0 0 C0.33 0.66 0.66 1.32 1 2 C-4.324335 4.32086397 -8.43842552 3.91457003 -14 3 C-9.31017775 0.56089583 -5.28875777 -0.15110736 0 0 Z " fill="#42918B" transform="translate(295,185)"/>
<path d="M0 0 C0.99 0.33 1.98 0.66 3 1 C3 1.66 3 2.32 3 3 C3.66 3 4.32 3 5 3 C5.25 10.5 5.25 10.5 3 15 C2.01 10.05 1.02 5.1 0 0 Z " fill="#58A19C" transform="translate(586,115)"/>
<path d="M0 0 C2.31 0.33 4.62 0.66 7 1 C7 1.99 7 2.98 7 4 C8.98 4 10.96 4 13 4 C13.33 4.66 13.66 5.32 14 6 C8.03790777 5.58882123 4.68411993 4.74729595 0 1 C0 0.67 0 0.34 0 0 Z " fill="#5FA7A0" transform="translate(487,292)"/>
<path d="M0 0 C0.66 0 1.32 0 2 0 C1.67 5.61 1.34 11.22 1 17 C0.67 17 0.34 17 0 17 C-1.33431286 11.99632677 -2.37905675 4.7581135 0 0 Z " fill="#459391" transform="translate(473,238)"/>
<path d="M0 0 C0 0.33 0 0.66 0 1 C-1.65 1 -3.3 1 -5 1 C-5 1.66 -5 2.32 -5 3 C-9.29 3 -13.58 3 -18 3 C-18 2.67 -18 2.34 -18 2 C-11.85221129 0.3722167 -6.35987804 -0.20190089 0 0 Z " fill="#5FA79E" transform="translate(268,190)"/>
<path d="M0 0 C0.66 0 1.32 0 2 0 C2 0.66 2 1.32 2 2 C3.65 1.67 5.3 1.34 7 1 C7.268125 1.598125 7.53625 2.19625 7.8125 2.8125 C8.98493467 4.97224808 10.19369282 6.35790256 12 8 C11.01 8.495 11.01 8.495 10 9 C8.51444617 8.07265428 7.03672494 7.13275187 5.5625 6.1875 C4.73878906 5.66542969 3.91507812 5.14335937 3.06640625 4.60546875 C1 3 1 3 0 0 Z " fill="#58A39F" transform="translate(495,161)"/>
<path d="M0 0 C1.32 0 2.64 0 4 0 C2.82744291 3.33727786 1.81131596 5.77437487 -1 8 C-1.66 8 -2.32 8 -3 8 C-3 8.66 -3 9.32 -3 10 C-3.99 9.67 -4.98 9.34 -6 9 C-6 8.34 -6 7.68 -6 7 C-4.68 7 -3.36 7 -2 7 C-1.67 6.01 -1.34 5.02 -1 4 C-0.34 4 0.32 4 1 4 C0.67 2.68 0.34 1.36 0 0 Z " fill="#438F8D" transform="translate(594,156)"/>
<path d="M0 0 C0.33 0 0.66 0 1 0 C1.0270043 1.45823212 1.04639787 2.91660675 1.0625 4.375 C1.07410156 5.18710938 1.08570313 5.99921875 1.09765625 6.8359375 C1 9 1 9 0 11 C-0.99 10.67 -1.98 10.34 -3 10 C-2.25 2.25 -2.25 2.25 0 0 Z " fill="#2C8B7E" transform="translate(606,134)"/>
<path d="M0 0 C1 3 1 3 0 6 C-0.99 6 -1.98 6 -3 6 C-3.66 7.65 -4.32 9.3 -5 11 C-5.66 9.68 -6.32 8.36 -7 7 C-6.21625 6.401875 -5.4325 5.80375 -4.625 5.1875 C-1.85425677 3.08914751 -1.85425677 3.08914751 0 0 Z " fill="#3D928C" transform="translate(601,66)"/>
<path d="M0 0 C0.99 0.66 1.98 1.32 3 2 C5.73872955 2.45772063 5.73872955 2.45772063 8.6875 2.625 C9.68136719 2.69976562 10.67523437 2.77453125 11.69921875 2.8515625 C12.45847656 2.90054687 13.21773437 2.94953125 14 3 C14 3.33 14 3.66 14 4 C11.77090129 4.02714735 9.54170633 4.04646254 7.3125 4.0625 C6.07113281 4.07410156 4.82976563 4.08570313 3.55078125 4.09765625 C0.53764546 4.01478673 -2.08275339 3.70839449 -5 3 C-3 1 -3 1 0 0 Z " fill="#4E9B9B" transform="translate(513,298)"/>
<path d="M0 0 C1.98 0.66 3.96 1.32 6 2 C2.87378374 5.39417765 0.43458973 7.6062718 -4 9 C-4 8.34 -4 7.68 -4 7 C-3.34 7 -2.68 7 -2 7 C-2 6.34 -2 5.68 -2 5 C-1.34 5 -0.68 5 0 5 C0 3.35 0 1.7 0 0 Z " fill="#449690" transform="translate(556,284)"/>
<path d="M0 0 C0 0.33 0 0.66 0 1 C-2.07914664 1.70005949 -4.16351586 2.38462244 -6.25 3.0625 C-7.41015625 3.44535156 -8.5703125 3.82820312 -9.765625 4.22265625 C-12.80077085 4.95211763 -14.15703213 5.11889082 -17 4 C-11.15439723 1.36536213 -6.45512034 -0.56131481 0 0 Z " fill="#4A9B93" transform="translate(511,194)"/>
<path d="M0 0 C2.375 0.6875 2.375 0.6875 5 2 C6.1875 4.5625 6.1875 4.5625 7 7 C7.66 7.33 8.32 7.66 9 8 C7.68 8 6.36 8 5 8 C5 6.68 5 5.36 5 4 C2.36 4 -0.28 4 -3 4 C-2.01 2.68 -1.02 1.36 0 0 Z " fill="#6FACA7" transform="translate(530,182)"/>
<path d="M0 0 C2.0625 0.4375 2.0625 0.4375 4 1 C4 1.66 4 2.32 4 3 C4.66 3 5.32 3 6 3 C6 3.99 6 4.98 6 6 C3.03 5.505 3.03 5.505 0 5 C-0.5625 3.0625 -0.5625 3.0625 -1 1 C-0.67 0.67 -0.34 0.34 0 0 Z " fill="#05847C" transform="translate(554,279)"/>
<path d="M0 0 C1.98 0.66 3.96 1.32 6 2 C6 2.66 6 3.32 6 4 C4 5.625 4 5.625 2 7 C1.01 6.34 0.02 5.68 -1 5 C-1.66 4.67 -2.32 4.34 -3 4 C-2.01 2.68 -1.02 1.36 0 0 Z " fill="#08807C" transform="translate(477,272)"/>
<path d="M0 0 C0 0.66 0 1.32 0 2 C-1.57925975 2.39180108 -3.16368794 2.76280736 -4.75 3.125 C-5.63171875 3.33382812 -6.5134375 3.54265625 -7.421875 3.7578125 C-10.32875493 4.03088304 -11.56661348 3.53508028 -14 2 C-12.4176994 1.66179834 -10.83410625 1.32964061 -9.25 1 C-8.36828125 0.814375 -7.4865625 0.62875 -6.578125 0.4375 C-4 0 -4 0 0 0 Z " fill="#59A19D" transform="translate(172,206)"/>
<path d="M0 0 C0 0.66 0 1.32 0 2 C-0.99 2 -1.98 2 -3 2 C-3 2.66 -3 3.32 -3 4 C-6.99560608 6.83022097 -10.42737323 5.76210446 -15 5 C-15 4.67 -15 4.34 -15 4 C-14.39671875 3.87882813 -13.7934375 3.75765625 -13.171875 3.6328125 C-12.37265625 3.46523437 -11.5734375 3.29765625 -10.75 3.125 C-9.96109375 2.96257812 -9.1721875 2.80015625 -8.359375 2.6328125 C-5.40895851 1.84147563 -3.04850362 0 0 0 Z " fill="#4A9D96" transform="translate(371,169)"/>
<path d="M0 0 C0 0.99 0 1.98 0 3 C-0.99 3 -1.98 3 -3 3 C-3 3.66 -3 4.32 -3 5 C-4.98 5.99 -6.96 6.98 -9 8 C-9.33 7.01 -9.66 6.02 -10 5 C-6.8745041 2.35534962 -3.91211733 1.15585285 0 0 Z " fill="#49988E" transform="translate(398,155)"/>
<path d="M0 0 C0.66 0.33 1.32 0.66 2 1 C1.01 1.33 0.02 1.66 -1 2 C-1 2.66 -1 3.32 -1 4 C-7.96428571 6.27678571 -7.96428571 6.27678571 -12 5 C-10.04578965 4.13644222 -8.08648653 3.28440066 -6.125 2.4375 C-5.03445313 1.96183594 -3.94390625 1.48617187 -2.8203125 0.99609375 C-1.88960938 0.66738281 -0.95890625 0.33867187 0 0 Z " fill="#449B93" transform="translate(473,129)"/>
<path d="M0 0 C0.33 0.99 0.66 1.98 1 3 C1.66 3 2.32 3 3 3 C3.66 4.65 4.32 6.3 5 8 C4.01 8.495 4.01 8.495 3 9 C0.375 8.0625 0.375 8.0625 -2 7 C-1.34 4.69 -0.68 2.38 0 0 Z " fill="#378E8A" transform="translate(478,266)"/>
<path d="M0 0 C-1.26941497 3.91402949 -2.51167694 5.79072873 -6 8 C-6.25 5.6875 -6.25 5.6875 -6 3 C-3.95575462 1.02389614 -2.8823175 0 0 0 Z " fill="#55A098" transform="translate(339,216)"/>
<path d="M0 0 C2.31 0 4.62 0 7 0 C6.67 0.66 6.34 1.32 6 2 C5.01 2.33 4.02 2.66 3 3 C1.79117904 5.00016466 1.79117904 5.00016466 1 7 C0.34 6.67 -0.32 6.34 -1 6 C-0.67 4.02 -0.34 2.04 0 0 Z " fill="#167E7C" transform="translate(328,211)"/>
<path d="M0 0 C1.65 0 3.3 0 5 0 C1.53258866 2.95749791 -1.86873527 5.07848152 -6 7 C-6 6.01 -6 5.02 -6 4 C-5.34 4 -4.68 4 -4 4 C-4 3.34 -4 2.68 -4 2 C-2.68 2 -1.36 2 0 2 C0 1.34 0 0.68 0 0 Z " fill="#519B93" transform="translate(378,179)"/>
<path d="M0 0 C2.64 0 5.28 0 8 0 C8 0.99 8 1.98 8 3 C4.37673261 4.2077558 3.35853631 3.54311128 0 2 C0 1.34 0 0.68 0 0 Z " fill="#078283" transform="translate(528,171)"/>
<path d="M0 0 C0.33 0.66 0.66 1.32 1 2 C1.66 2 2.32 2 3 2 C3 1.34 3 0.68 3 0 C4.98 0 6.96 0 9 0 C6.11912454 2.40072955 3.43595166 4.47291037 0 6 C0 4.02 0 2.04 0 0 Z " fill="#439490" transform="translate(515,93)"/>
<path d="M0 0 C0.99 0.33 1.98 0.66 3 1 C3 1.99 3 2.98 3 4 C-1.29 4 -5.58 4 -10 4 C-10 3.67 -10 3.34 -10 3 C-6.97265625 2.26757812 -6.97265625 2.26757812 -3.9453125 1.53515625 C-1.9414343 1.05153008 -1.9414343 1.05153008 0 0 Z " fill="#3D918D" transform="translate(524,79)"/>
<path d="M0 0 C-2.6148817 1.74325447 -4.0053433 2.41587957 -6.9375 3.125 C-7.60652344 3.29257812 -8.27554688 3.46015625 -8.96484375 3.6328125 C-11 4 -11 4 -15 4 C-15 3.34 -15 2.68 -15 2 C-13.43883181 1.66048381 -11.87598662 1.32867456 -10.3125 1 C-9.44238281 0.814375 -8.57226562 0.62875 -7.67578125 0.4375 C-5.06287036 0.01027953 -2.64186962 -0.07616201 0 0 Z " fill="#46968C" transform="translate(547,296)"/>
<path d="M0 0 C-1.86977097 2.44710376 -2.82502483 2.96931493 -5.91796875 3.51171875 C-7.53638672 3.59873047 -7.53638672 3.59873047 -9.1875 3.6875 C-10.27417969 3.75324219 -11.36085938 3.81898438 -12.48046875 3.88671875 C-13.72763672 3.94279297 -13.72763672 3.94279297 -15 4 C-12.18438333 2.52790818 -9.38026161 1.34273182 -6.375 0.3125 C-5.59898437 0.04050781 -4.82296875 -0.23148438 -4.0234375 -0.51171875 C-2 -1 -2 -1 0 0 Z " fill="#7DB8B1" transform="translate(566,166)"/>
<path d="M0 0 C2.45823172 3.68734758 3.01242616 6.69699971 4 11 C3.01 10.67 2.02 10.34 1 10 C-0.33599181 6.99401842 -1.14345053 4.90852004 -0.625 1.625 C-0.41875 1.08875 -0.2125 0.5525 0 0 Z " fill="#65A6A1" transform="translate(474,255)"/>
<path d="M0 0 C0.66 0 1.32 0 2 0 C3.625 2 3.625 2 5 4 C4.34 5.32 3.68 6.64 3 8 C2.01 8 1.02 8 0 8 C0 5.33333333 0 2.66666667 0 0 Z " fill="#07807A" transform="translate(556,270)"/>
<path d="M0 0 C1.32 0 2.64 0 4 0 C3.34 2.64 2.68 5.28 2 8 C1.67 6.68 1.34 5.36 1 4 C0.01 3.67 -0.98 3.34 -2 3 C-1.34 2.01 -0.68 1.02 0 0 Z " fill="#4BA09E" transform="translate(474,230)"/>
<path d="M0 0 C0 0.33 0 0.66 0 1 C-5.12919186 3.10428384 -9.5610835 3.21755666 -15 3 C-9.76595295 0.33421206 -5.94078624 -0.11424589 0 0 Z " fill="#559995" transform="translate(336,178)"/>
<path d="M0 0 C1.45947705 0.06006078 2.91779272 0.1488689 4.375 0.25 C5.59316406 0.31960937 5.59316406 0.31960937 6.8359375 0.390625 C9 1 9 1 10.2890625 3.046875 C10.64097656 4.01367188 10.64097656 4.01367188 11 5 C9.53932801 4.54917531 8.08151968 4.08906463 6.625 3.625 C5.81289063 3.36976563 5.00078125 3.11453125 4.1640625 2.8515625 C2 2 2 2 0 0 Z " fill="#4E9B95" transform="translate(515,174)"/>
<path d="M0 0 C2 2 2 2 2 5 C2.66 5 3.32 5 4 5 C4 7.31 4 9.62 4 12 C3.34 12 2.68 12 2 12 C1.34 8.04 0.68 4.08 0 0 Z " fill="#4B9B8B" transform="translate(605,120)"/>
<path d="M0 0 C0.66 0.33 1.32 0.66 2 1 C0.51821862 5.69230769 0.51821862 5.69230769 -2 7.1875 C-2.66 7.455625 -3.32 7.72375 -4 8 C-4.66 8.66 -5.32 9.32 -6 10 C-5.45388137 6.17716957 -3.76181385 4.58920048 -1 2 C-0.67 1.34 -0.34 0.68 0 0 Z " fill="#5FA3A0" transform="translate(497,93)"/>
<path d="M0 0 C1.32 0.66 2.64 1.32 4 2 C3.34 3.65 2.68 5.3 2 7 C1.01 7 0.02 7 -1 7 C-1.33 5.68 -1.66 4.36 -2 3 C-1.34 2.67 -0.68 2.34 0 2 C0 1.34 0 0.68 0 0 Z " fill="#469D96" transform="translate(472,273)"/>
<path d="M0 0 C0.66 0 1.32 0 2 0 C2 0.66 2 1.32 2 2 C2.66 2 3.32 2 4 2 C4 1.34 4 0.68 4 0 C4.99 0 5.98 0 7 0 C6.49396008 2.16874252 6.00016187 3.99967627 5 6 C4.34 6 3.68 6 3 6 C3 5.01 3 4.02 3 3 C2.34 3 1.68 3 1 3 C0.67 2.01 0.34 1.02 0 0 Z " fill="#0D7E78" transform="translate(582,105)"/>
<path d="M0 0 C1.98 0.99 3.96 1.98 6 3 C6 3.66 6 4.32 6 5 C4.35 5.33 2.7 5.66 1 6 C0.67 4.02 0.34 2.04 0 0 Z " fill="#07827A" transform="translate(537,193)"/>
<path d="M0 0 C0 0.66 0 1.32 0 2 C-0.763125 1.95875 -1.52625 1.9175 -2.3125 1.875 C-5.22718416 1.77919176 -5.22718416 1.77919176 -8 4 C-7.625 2.0625 -7.625 2.0625 -7 0 C-4.3333581 -1.33332095 -2.83319697 -0.67102033 0 0 Z " fill="#0B807A" transform="translate(534,186)"/>
<path d="M0 0 C-4.75 3.875 -4.75 3.875 -7 5 C-7.99 4.34 -8.98 3.68 -10 3 C-9.01 3 -8.02 3 -7 3 C-7 2.34 -7 1.68 -7 1 C-4.53721199 -0.231394 -2.7204945 -0.07159196 0 0 Z " fill="#127E78" transform="translate(378,168)"/>
<path d="M0 0 C6.4 0.49230769 6.4 0.49230769 9.4375 3.0625 C10.2109375 4.0215625 10.2109375 4.0215625 11 5 C8.69 4.34 6.38 3.68 4 3 C4 2.34 4 1.68 4 1 C2.68 0.67 1.36 0.34 0 0 Z " fill="#60A7A1" transform="translate(571,82)"/>
<path d="M0 0 C0 0.99 0 1.98 0 3 C-2.375 4.75 -2.375 4.75 -5 6 C-5.66 5.67 -6.32 5.34 -7 5 C-2.25 1.125 -2.25 1.125 0 0 Z " fill="#479391" transform="translate(486,203)"/>
<path d="M0 0 C2.31 0.33 4.62 0.66 7 1 C7.33 1.99 7.66 2.98 8 4 C3.545 3.01 3.545 3.01 -1 2 C-0.67 1.34 -0.34 0.68 0 0 Z " fill="#5EA999" transform="translate(325,195)"/>
<path d="M0 0 C-0.66 1.32 -1.32 2.64 -2 4 C-3.65 3.67 -5.3 3.34 -7 3 C-4.49955934 -0.00052879 -4.2621484 0 0 0 Z " fill="#3A908D" transform="translate(250,193)"/>
<path d="M0 0 C2.64 0 5.28 0 8 0 C8 0.99 8 1.98 8 3 C2.25 2.25 2.25 2.25 0 0 Z " fill="#55A29B" transform="translate(507,171)"/>
<path d="M0 0 C2.97 1.65 5.94 3.3 9 5 C6.13822943 6.43088528 4.06624227 5.59991697 1 5 C0.67 3.35 0.34 1.7 0 0 Z " fill="#55A094" transform="translate(518,161)"/>
<path d="M0 0 C0.99 0.99 1.98 1.98 3 3 C0.69 3.66 -1.62 4.32 -4 5 C-4 4.01 -4 3.02 -4 2 C-2.68 1.34 -1.36 0.68 0 0 Z " fill="#499E98" transform="translate(409,161)"/>
<path d="M0 0 C0.99 0.33 1.98 0.66 3 1 C3 2.32 3 3.64 3 5 C1.02 5.99 1.02 5.99 -1 7 C-0.67 4.69 -0.34 2.38 0 0 Z " fill="#288780" transform="translate(585,144)"/>
<path d="M0 0 C-2.6855594 2.6855594 -5.37621328 3.06049974 -9 4 C-9 3.01 -9 2.02 -9 1 C-5.8035914 -0.06546953 -3.34252724 -0.07427838 0 0 Z " fill="#56A199" transform="translate(533,89)"/>
<path d="M0 0 C0.78375 0.04125 1.5675 0.0825 2.375 0.125 C0.725 1.445 -0.925 2.765 -2.625 4.125 C-3.285 3.465 -3.945 2.805 -4.625 2.125 C-2.625 0.125 -2.625 0.125 0 0 Z M-6.625 4.125 C-2.625 5.125 -2.625 5.125 -2.625 5.125 Z " fill="#117D79" transform="translate(529.625,78.875)"/>
<path d="M0 0 C-2 2 -2 2 -3.9453125 2.1953125 C-5.96354167 2.13020833 -7.98177083 2.06510417 -10 2 C-3.75 -1.125 -3.75 -1.125 0 0 Z " fill="#4B9691" transform="translate(534,287)"/>
<path d="M0 0 C1.125 3.75 1.125 3.75 0 6 C-1.32 6 -2.64 6 -4 6 C-4 5.01 -4 4.02 -4 3 C-2 1.3125 -2 1.3125 0 0 Z " fill="#55A6A0" transform="translate(337,228)"/>
<path d="M0 0 C2.475 0.99 2.475 0.99 5 2 C5 3.32 5 4.64 5 6 C4.01 5.67 3.02 5.34 2 5 C0.8125 2.4375 0.8125 2.4375 0 0 Z " fill="#429E99" transform="translate(553,202)"/>
<path d="M0 0 C3.465 1.485 3.465 1.485 7 3 C7 3.66 7 4.32 7 5 C5.35 5 3.7 5 2 5 C1.34 3.35 0.68 1.7 0 0 Z " fill="#6BA8A4" transform="translate(546,197)"/>
<path d="M0 0 C-0.33 1.32 -0.66 2.64 -1 4 C-2.98 4.33 -4.96 4.66 -7 5 C-2.25 0 -2.25 0 0 0 Z " fill="#529C97" transform="translate(482,124)"/>
<path d="M0 0 C0.33 0.99 0.66 1.98 1 3 C-0.65 4.32 -2.3 5.64 -4 7 C-4.66 6.67 -5.32 6.34 -6 6 C-2.25 1.125 -2.25 1.125 0 0 Z " fill="#6BB2AE" transform="translate(592,75)"/>
</svg>
